<?xml version="1.0" standalone="no"?>
<!DOCTYPE svg PUBLIC "-//W3C//DTD SVG 20010904//EN"
 "http://www.w3.org/TR/2001/REC-SVG-20010904/DTD/svg10.dtd">
<svg version="1.0" xmlns="http://www.w3.org/2000/svg"
 width="512.000000pt" height="512.000000pt" viewBox="0 0 512.000000 512.000000"
 preserveAspectRatio="xMidYMid meet">
<metadata>
Created by potrace 1.14, written by Peter Selinger 2001-2017
</metadata>
<g transform="translate(0.000000,512.000000) scale(0.100000,-0.100000)"
fill="#000000" stroke="none">
<path d="M981 5111 c-8 -5 -21 -7 -30 -4 -11 3 -12 2 -4 -4 12 -8 -35 -47
-155 -128 -24 -16 -50 -38 -58 -49 -8 -11 -14 -16 -14 -11 0 6 -9 -4 -20 -21
-11 -17 -30 -36 -42 -43 -25 -15 -194 -198 -255 -276 -74 -95 -199 -285 -224
-338 -11 -23 -24 -49 -29 -57 -47 -77 -116 -256 -126 -329 -4 -28 -10 -48 -15
-45 -10 6 -6 -1094 4 -1151 4 -22 10 -60 13 -85 4 -25 14 -54 24 -65 24 -28
81 -155 74 -166 -3 -5 -1 -9 4 -9 10 0 62 -99 62 -118 0 -6 4 -12 9 -12 5 0 7
-10 4 -22 -3 -16 -2 -19 4 -10 7 9 13 2 23 -23 8 -19 17 -35 22 -35 4 0 8 -6
8 -14 0 -8 4 -16 8 -18 4 -1 19 -18 32 -37 14 -20 18 -31 9 -27 -7 4 -4 -1 8
-10 13 -9 23 -23 23 -30 0 -8 4 -14 9 -14 5 0 29 -27 53 -60 97 -130 201 -233
426 -421 12 -10 26 -19 31 -19 4 0 20 -11 34 -24 14 -13 28 -21 31 -18 3 3 6
1 6 -5 0 -6 8 -13 18 -17 9 -3 35 -17 57 -31 22 -13 95 -52 162 -87 67 -34
119 -66 116 -72 -3 -5 -1 -6 5 -2 14 8 94 -23 86 -35 -3 -5 2 -6 10 -3 12 4
16 0 17 -17 1 -17 3 -19 6 -7 7 27 21 21 28 -12 4 -16 10 -30 15 -30 5 0 7
-17 5 -38 -4 -32 -3 -33 3 -7 5 20 10 26 15 18 5 -7 5 -13 1 -13 -3 0 1 -12
11 -26 13 -20 14 -28 4 -40 -7 -8 -7 -14 -1 -14 5 0 12 -9 15 -20 4 -14 0 -20
-11 -20 -13 0 -11 -4 6 -16 22 -15 23 -23 4 -73 -3 -8 -1 -12 4 -9 5 3 14 0
21 -7 10 -11 10 -15 0 -18 -7 -3 -5 -6 5 -6 13 -1 20 -13 24 -41 4 -22 9 -40
13 -40 4 0 8 -11 9 -25 1 -14 -3 -25 -8 -25 -6 0 -10 -5 -10 -11 0 -5 6 -7 12
-3 9 6 9 3 -1 -9 -17 -21 -7 -47 18 -47 12 0 21 -9 25 -25 4 -14 11 -23 16
-20 6 4 13 -1 17 -10 8 -21 51 -65 61 -62 4 1 8 -11 10 -26 3 -25 6 -27 20
-15 13 11 15 11 9 -4 -4 -12 0 -21 12 -28 10 -5 24 -30 30 -55 13 -50 50 -228
60 -290 4 -23 10 -46 14 -52 4 -7 0 -13 -10 -16 -10 -3 480 -5 1090 -6 l1108
-1 -17 33 c-9 17 -28 46 -43 62 -39 43 -91 137 -131 235 l-34 85 -3 200 c-4
225 -9 351 -17 363 -3 5 1 20 9 35 7 14 9 27 5 29 -14 5 -22 68 -14 111 6 36
11 41 63 64 100 44 326 158 333 168 4 5 8 7 8 3 0 -11 122 52 162 84 21 16 42
27 48 23 6 -4 7 1 3 11 -4 12 -3 15 5 10 7 -4 12 -3 12 2 0 5 18 17 40 27 22
10 37 21 35 25 -7 12 23 33 35 25 6 -4 10 -3 8 2 -3 12 229 242 238 235 4 -4
4 -2 1 5 -4 6 -2 17 5 25 16 16 88 126 88 133 0 3 21 38 46 77 26 40 43 64 40
54 -5 -16 -4 -17 9 -6 8 7 15 18 15 25 0 7 7 18 15 25 12 10 13 15 4 20 -8 6
-8 17 2 44 13 35 29 49 29 24 0 -6 3 -8 6 -5 4 4 2 13 -4 20 -12 15 -3 60 18
94 8 12 10 13 7 2 -3 -9 1 -16 8 -16 7 0 10 8 7 19 -6 26 7 22 17 -4 5 -13 9
274 10 648 l2 671 -26 69 c-15 38 -36 98 -47 134 -28 91 -68 181 -127 283 -28
48 -51 90 -51 93 0 3 -7 12 -16 21 -8 9 -13 22 -10 29 3 8 0 11 -10 7 -8 -3
-14 1 -14 9 0 7 -17 34 -37 60 -21 25 -68 84 -105 130 -65 81 -269 290 -337
345 -19 16 -49 42 -65 58 -37 37 -163 120 -228 152 -27 13 -48 28 -48 33 0 13
-2999 14 -3019 1z m4129 -2661 c0 -5 -2 -10 -4 -10 -3 0 -8 5 -11 10 -3 6 -1
10 4 10 6 0 11 -4 11 -10z"/>
<path d="M4205 5020 c-3 -5 -1 -10 4 -10 6 0 11 5 11 10 0 6 -2 10 -4 10 -3 0
-8 -4 -11 -10z"/>
<path d="M4230 5006 c0 -2 11 -11 25 -20 14 -9 25 -13 25 -8 0 5 -11 14 -25
20 -14 6 -25 10 -25 8z"/>
<path d="M4310 4946 c0 -2 7 -7 16 -10 8 -3 12 -2 9 4 -6 10 -25 14 -25 6z"/>
<path d="M4356 4907 c3 -10 9 -15 12 -12 3 3 0 11 -7 18 -10 9 -11 8 -5 -6z"/>
<path d="M4535 4740 c3 -5 8 -10 11 -10 2 0 4 5 4 10 0 6 -5 10 -11 10 -5 0
-7 -4 -4 -10z"/>
<path d="M4670 4620 c0 -5 5 -10 11 -10 5 0 7 5 4 10 -3 6 -8 10 -11 10 -2 0
-4 -4 -4 -10z"/>
<path d="M4695 4581 c-3 -5 0 -13 6 -17 7 -4 9 -3 5 4 -3 5 0 13 6 15 9 4 10
6 1 6 -6 1 -14 -3 -18 -8z"/>
<path d="M4750 4531 c0 -7 -5 -9 -12 -5 -7 5 -8 3 -3 -5 5 -9 10 -10 18 -2 6
6 8 14 4 18 -4 3 -7 1 -7 -6z"/>
<path d="M4825 4399 c-4 -6 -5 -12 -2 -15 2 -3 7 2 10 11 7 17 1 20 -8 4z"/>
<path d="M4843 4373 c1 -15 5 -19 13 -13 6 6 15 6 19 2 5 -4 5 -1 1 6 -4 7
-11 10 -16 7 -4 -3 -10 1 -13 7 -3 7 -4 3 -4 -9z"/>
<path d="M4943 4225 c0 -8 4 -12 9 -9 5 3 6 10 3 15 -9 13 -12 11 -12 -6z"/>
<path d="M5006 4115 c-4 -11 -2 -14 6 -9 7 5 9 2 5 -9 -7 -19 18 -44 28 -27 4
6 3 10 -2 9 -18 -3 -27 2 -16 9 8 5 8 12 -2 25 -11 16 -13 16 -19 2z"/>
<path d="M5100 4036 c0 -8 4 -17 9 -20 5 -4 7 3 4 14 -6 23 -13 26 -13 6z"/>
<path d="M5085 3980 c-3 -6 1 -7 9 -4 18 7 21 14 7 14 -6 0 -13 -4 -16 -10z"/>
<path d="M5092 3923 c-15 -6 -6 -67 13 -96 11 -16 12 -13 11 17 0 19 -4 32 -8
30 -4 -3 -5 9 -3 26 2 16 3 30 2 29 -1 0 -8 -3 -15 -6z"/>
<path d="M5063 2314 c4 -4 2 -13 -4 -21 -9 -9 -8 -13 0 -13 6 0 11 5 11 11 0
5 5 7 10 4 6 -3 10 -2 10 3 0 6 -8 13 -17 16 -10 4 -14 4 -10 0z"/>
<path d="M4195 41 c-8 -16 -20 -31 -27 -34 -7 -3 6 -6 30 -6 23 -1 42 3 42 9
0 5 -8 6 -17 3 -16 -6 -17 -5 -3 12 11 14 11 17 1 11 -10 -7 -12 -3 -6 13 9
30 -2 26 -20 -8z"/>
</g>
</svg>
