<?xml version="1.0" standalone="no"?>
<!DOCTYPE svg PUBLIC "-//W3C//DTD SVG 20010904//EN"
 "http://www.w3.org/TR/2001/REC-SVG-20010904/DTD/svg10.dtd">
<svg version="1.0" xmlns="http://www.w3.org/2000/svg"
 width="560.000000pt" height="560.000000pt" viewBox="0 0 560.000000 560.000000"
 preserveAspectRatio="xMidYMid meet">
<metadata>
Created by potrace 1.14, written by Peter Selinger 2001-2017
</metadata>
<g transform="translate(0.000000,560.000000) scale(0.100000,-0.100000)"
fill="#000000" stroke="none">
<path d="M1969 3837 c-18 -12 -40 -36 -49 -52 -8 -17 -16 -32 -17 -34 -2 -2
-40 -10 -85 -18 -88 -15 -249 -81 -280 -116 -13 -14 -18 -36 -18 -83 0 -79 16
-99 89 -109 l51 -7 0 -251 c0 -373 26 -520 125 -717 134 -267 351 -446 645
-532 256 -75 467 -76 750 -3 265 68 518 283 644 550 90 189 116 342 116 696 0
200 3 248 14 252 7 3 35 9 61 13 26 3 56 15 66 25 36 36 19 189 -21 189 -4 0
-46 18 -92 39 -45 22 -112 45 -148 51 -118 20 -119 20 -135 53 -27 55 -61 72
-140 72 -64 0 -77 -4 -157 -47 -77 -42 -99 -49 -180 -58 -114 -13 -150 -22
-256 -66 -111 -46 -167 -46 -276 0 -120 50 -138 55 -265 68 -98 9 -123 15
-165 40 -118 71 -215 87 -277 45z m254 -204 c-24 -2 -62 -2 -85 0 -24 2 -5 4
42 4 47 0 66 -2 43 -4z m1265 0 c-21 -2 -55 -2 -75 0 -21 2 -4 4 37 4 41 0 58
-2 38 -4z m-621 -213 l49 -11 11 -107 c18 -172 65 -263 170 -330 83 -52 150
-67 308 -66 125 0 148 3 219 28 86 29 153 71 203 126 l33 35 0 -31 c0 -52 -29
-200 -50 -257 -42 -113 -97 -171 -225 -235 -66 -33 -123 -47 -153 -38 -14 5
-33 38 -62 106 -23 55 -51 111 -61 124 -43 55 -203 116 -305 116 l-45 0 34 34
c19 19 37 46 39 60 l5 26 -237 0 -237 0 5 -26 c2 -14 20 -41 39 -60 l34 -34
-45 0 c-102 0 -262 -61 -305 -116 -10 -13 -38 -69 -61 -124 -29 -68 -48 -101
-62 -106 -30 -9 -87 5 -153 38 -128 64 -183 122 -225 235 -22 59 -50 205 -50
261 l0 35 30 -41 c43 -59 114 -109 195 -135 60 -19 91 -22 210 -21 125 0 148
3 219 28 176 60 272 173 296 347 6 41 9 85 8 98 -2 19 4 26 32 37 44 16 76 17
137 4z m-34 -702 c12 -6 85 -14 163 -17 130 -6 144 -8 180 -32 29 -19 49 -46
72 -92 57 -115 39 -221 -56 -328 -97 -109 -179 -131 -252 -65 -82 74 -198 74
-280 0 -73 -66 -155 -44 -252 65 -95 107 -113 213 -56 328 23 46 43 73 72 92
36 24 50 26 180 32 78 3 150 11 161 17 26 15 41 15 68 0z"/>
<path d="M2520 2588 c0 -45 40 -126 81 -167 108 -108 290 -108 398 0 41 41 81
122 81 167 l0 32 -280 0 -280 0 0 -32z"/>
<path d="M1635 1483 c-28 -14 -69 -36 -93 -49 l-42 -25 17 -32 c49 -95 116
-165 238 -247 77 -52 268 -150 292 -150 8 0 13 11 13 29 0 24 -9 34 -57 64
-58 35 -187 158 -224 213 -36 53 -62 108 -78 165 l-16 57 -50 -25z"/>
<path d="M3910 1497 c0 -33 -33 -118 -67 -175 -48 -78 -170 -203 -245 -249
-49 -30 -58 -40 -58 -64 0 -18 5 -29 13 -29 24 0 215 98 292 150 122 82 189
152 238 247 19 37 20 36 -101 97 -48 24 -72 32 -72 23z"/>
<path d="M2200 942 c0 -15 17 -23 93 -40 146 -33 198 -38 102 -8 -45 14 -104
34 -133 45 -64 25 -62 25 -62 3z"/>
<path d="M3335 939 c-27 -11 -86 -32 -130 -45 -62 -19 -70 -23 -35 -19 25 3
87 15 138 27 75 17 92 25 92 40 0 22 -3 22 -65 -3z"/>
<path d="M2503 863 c9 -2 23 -2 30 0 6 3 -1 5 -18 5 -16 0 -22 -2 -12 -5z"/>
<path d="M3078 863 c6 -2 18 -2 25 0 6 3 1 5 -13 5 -14 0 -19 -2 -12 -5z"/>
<path d="M2558 853 c6 -2 18 -2 25 0 6 3 1 5 -13 5 -14 0 -19 -2 -12 -5z"/>
<path d="M3023 853 c9 -2 23 -2 30 0 6 3 -1 5 -18 5 -16 0 -22 -2 -12 -5z"/>
<path d="M2663 843 c9 -2 25 -2 35 0 9 3 1 5 -18 5 -19 0 -27 -2 -17 -5z"/>
<path d="M2918 843 c12 -2 32 -2 45 0 12 2 2 4 -23 4 -25 0 -35 -2 -22 -4z"/>
</g>
</svg>
